HIERARCHY
ROOT Pelvis
{
	OFFSET 0.000000 0.941512 0.000000
	CHANNELS 6 Xposition Yposition Zposition Zrotation Yrotation Xrotation 
	JOINT Pelvis_L_Hip
	{
		OFFSET 0.000000 0.000000 0.000000
		CHANNELS 3 Zrotation Yrotation Xrotation
		JOINT L_Hip
		{
			OFFSET 0.062321 -0.080322 -0.016990
			CHANNELS 3 Zrotation Yrotation Xrotation
			JOINT L_Knee
			{
				OFFSET 0.093051 -0.381305 -0.029784
				CHANNELS 3 Zrotation Yrotation Xrotation
				JOINT L_Ankle
				{
					OFFSET -0.010371 -0.431000 -0.033614
					CHANNELS 3 Zrotation Yrotation Xrotation
					End Site #name: L_Foot
					{
						OFFSET 0.069299 -0.038670 0.119418
					}
				}
			}
		}
	}
	JOINT Pelvis_R_Hip
	{
		OFFSET 0.000000 0.000000 0.000000
		CHANNELS 3 Zrotation Yrotation Xrotation
		JOINT R_Hip
		{
			OFFSET -0.055334 -0.094904 -0.002373
			CHANNELS 3 Zrotation Yrotation Xrotation
			JOINT R_Knee
			{
				OFFSET -0.064207 -0.384370 -0.019592
				CHANNELS 3 Zrotation Yrotation Xrotation
				JOINT R_Ankle
				{
					OFFSET 0.025418 -0.419734 -0.065953
					CHANNELS 3 Zrotation Yrotation Xrotation
					End Site #name: R_Foot
					{
						OFFSET -0.057233 -0.039888 0.132134
					}
				}
			}
		}
	}
	JOINT Pelvis_Spine1
	{
		OFFSET 0.000000 0.000000 0.000000
		CHANNELS 3 Zrotation Yrotation Xrotation
		JOINT Spine1
		{
			OFFSET -0.005562 0.124093 -0.043360
			CHANNELS 3 Zrotation Yrotation Xrotation
			JOINT Spine2
			{
				OFFSET 0.012244 0.139499 0.029894
				CHANNELS 3 Zrotation Yrotation Xrotation
				JOINT Spine3
				{
					OFFSET -0.002556 0.056561 0.009225
					CHANNELS 3 Zrotation Yrotation Xrotation
					JOINT Spine3_Neck
					{
						OFFSET 0.000000 0.000000 0.000000
						CHANNELS 3 Zrotation Yrotation Xrotation
						JOINT Neck
						{
							OFFSET -0.005205 0.217920 -0.024551
							CHANNELS 3 Zrotation Yrotation Xrotation
							End Site #name: Head
							{
								OFFSET 0.002365 0.091850 0.046637
							}
						}
					}
					JOINT Spine3_L_Collar
					{
						OFFSET 0.000000 0.000000 0.000000
						CHANNELS 3 Zrotation Yrotation Xrotation
						JOINT L_Collar
						{
							OFFSET 0.072225 0.116603 -0.009480
							CHANNELS 3 Zrotation Yrotation Xrotation
							JOINT L_Shoulder
							{
								OFFSET 0.115937 -0.058643 -0.021018
								CHANNELS 3 Zrotation Yrotation Xrotation
								JOINT L_Elbow
								{
									OFFSET 0.021994 -0.254722 -0.024492
									CHANNELS 3 Zrotation Yrotation Xrotation
									End Site #name: L_Wrist
									{
										OFFSET 0.048810 -0.240214 0.103329
									}
								}
							}
						}
					}
					JOINT Spine3_R_Collar
					{
						OFFSET 0.000000 0.000000 0.000000
						CHANNELS 3 Zrotation Yrotation Xrotation
						JOINT R_Collar
						{
							OFFSET -0.073372 0.120704 -0.024611
							CHANNELS 3 Zrotation Yrotation Xrotation
							JOINT R_Shoulder
							{
								OFFSET -0.108089 -0.054969 -0.020504
								CHANNELS 3 Zrotation Yrotation Xrotation
								JOINT R_Elbow
								{
									OFFSET -0.033684 -0.260739 0.009889
									CHANNELS 3 Zrotation Yrotation Xrotation
									End Site #name: R_Wrist
									{
										OFFSET -0.067980 -0.232763 0.118463
									}
								}
							}
						}
					}
				}
			}
		}
	}
}
MOTION
Frames: 7
Frame Time: 0.041667
0.000000 0.687133 0.000000 -2.826929 -5.783664 -21.941491 0.000000 0.000000 0.000000 11.015213 -6.828251 -43.651060 -7.397875 3.902931 63.631615 5.728233 1.741916 -9.341452 0.000000 0.000000 0.000000 -9.190077 4.652836 -42.447197 16.608462 -6.790556 57.437825 -4.049524 -9.732329 -2.697463 0.000000 0.000000 0.000000 2.469956 -1.890600 14.947453 -6.218969 5.991357 40.137865 4.535604 5.389953 -41.302252 0.000000 0.000000 0.000000 -2.712378 1.062843 19.732962 0.000000 0.000000 0.000000 10.884277 -9.741826 -4.361129 -4.357312 0.994867 6.360349 -8.896607 -25.464179 -48.709302 0.000000 0.000000 0.000000 -8.946513 11.823749 -5.686251 5.321003 -2.236360 15.102892 -2.944093 26.856400 -61.563800 
0.000356 0.687039 -0.000855 -2.892726 -5.823855 -21.896736 0.000000 0.000000 0.000000 11.096804 -6.811237 -43.763304 -7.417967 3.921703 63.651504 5.723515 1.822352 -9.293691 0.000000 0.000000 0.000000 -9.159980 4.679074 -42.529242 16.642484 -6.810457 57.377469 -4.035484 -9.796403 -2.603404 0.000000 0.000000 0.000000 2.515449 -1.926509 15.172858 -6.230959 5.972139 39.965298 4.498188 5.391103 -41.206430 0.000000 0.000000 0.000000 -2.402252 0.857024 20.087775 0.000000 0.000000 0.000000 11.507757 -10.121840 -4.555017 -5.190011 1.140226 6.868909 -12.571795 -25.212747 -41.751324 0.000000 0.000000 0.000000 -9.567932 12.007645 -5.771340 6.354257 -2.357352 15.536232 1.990787 26.910933 -52.111603 
0.000335 0.687041 -0.001198 -2.935040 -5.856593 -21.795279 0.000000 0.000000 0.000000 11.230787 -6.775677 -43.884320 -7.523841 3.999664 63.608714 5.706556 1.895091 -9.226741 0.000000 0.000000 0.000000 -9.177586 4.697843 -42.679911 16.729170 -6.873896 57.358031 -4.038708 -9.877656 -2.542894 0.000000 0.000000 0.000000 2.573532 -1.949814 15.223874 -6.310288 5.961039 39.589291 4.542983 5.492648 -40.971334 0.000000 0.000000 0.000000 -2.253597 0.749902 20.620818 0.000000 0.000000 0.000000 12.465919 -10.292543 -4.586126 -5.904904 1.179568 6.656338 -14.912299 -25.335486 -38.106058 0.000000 0.000000 0.000000 -10.431240 12.108641 -5.798960 7.362507 -2.374009 15.383186 6.184175 26.200570 -43.800521 
0.000061 0.687438 -0.001231 -2.913667 -5.855878 -21.740679 0.000000 0.000000 0.000000 11.310204 -6.748598 -43.906571 -7.645776 4.083645 63.531492 5.684328 1.933119 -9.166435 0.000000 0.000000 0.000000 -9.275153 4.672802 -42.746731 16.850110 -6.959499 57.334410 -4.034730 -9.915922 -2.499090 0.000000 0.000000 0.000000 2.569577 -1.948682 15.224090 -6.422271 5.959164 39.162444 4.617253 5.638263 -40.735482 0.000000 0.000000 0.000000 -2.200444 0.699885 21.306946 0.000000 0.000000 0.000000 13.646493 -10.475664 -4.605271 -6.760270 1.164259 6.013794 -16.071684 -25.586925 -36.737973 0.000000 0.000000 0.000000 -11.528235 12.325848 -5.891711 8.376377 -2.322224 14.903941 9.085321 26.242930 -39.154560 
-0.000174 0.687806 -0.000972 -2.869555 -5.829384 -21.749031 0.000000 0.000000 0.000000 11.281698 -6.757532 -43.878989 -7.670400 4.100549 63.537021 5.687808 1.933755 -9.172324 0.000000 0.000000 0.000000 -9.357851 4.636920 -42.721680 16.908469 -7.002641 57.346125 -4.034162 -9.899193 -2.512167 0.000000 0.000000 0.000000 2.585283 -1.947622 15.160262 -6.515951 5.979459 38.966517 4.634417 5.701581 -40.577365 0.000000 0.000000 0.000000 -2.204701 0.692712 21.777605 0.000000 0.000000 0.000000 14.439846 -10.697613 -4.685597 -7.266444 1.114517 5.401733 -16.782436 -25.657908 -35.786644 0.000000 0.000000 0.000000 -12.519137 12.726137 -6.108409 9.146731 -2.244385 14.387362 10.556341 26.992130 -37.920849 
-0.000343 0.688094 -0.000562 -2.829046 -5.794643 -21.765275 0.000000 0.000000 0.000000 11.180189 -6.798126 -43.876137 -7.595461 4.053335 63.651763 5.730574 1.933685 -9.251591 0.000000 0.000000 0.000000 -9.352550 4.633993 -42.715548 16.831420 -6.961737 57.478762 -4.053373 -9.861141 -2.599222 0.000000 0.000000 0.000000 2.631922 -1.951444 15.045662 -6.541071 6.017436 39.139440 4.602834 5.686907 -40.656959 0.000000 0.000000 0.000000 -2.250867 0.721520 21.827320 0.000000 0.000000 0.000000 14.477553 -10.741349 -4.712040 -7.257647 1.083804 5.214396 -17.189656 -25.584900 -35.029108 0.000000 0.000000 0.000000 -12.829986 12.954769 -6.244569 9.432445 -2.195529 14.117158 10.914078 27.230016 -37.704073 
-0.000520 0.688115 -0.000266 -2.792996 -5.786026 -21.763096 0.000000 0.000000 0.000000 11.080894 -6.836925 -43.894627 -7.487054 3.986799 63.748374 5.767012 1.944305 -9.314887 0.000000 0.000000 0.000000 -9.255733 4.678322 -42.785384 16.648992 -6.848610 57.689454 -4.080577 -9.842790 -2.691872 0.000000 0.000000 0.000000 2.666808 -1.959716 15.020566 -6.556118 6.057993 39.347270 4.630595 5.752049 -40.820898 0.000000 0.000000 0.000000 -2.403825 0.821642 21.611630 0.000000 0.000000 0.000000 14.108705 -10.509294 -4.581696 -7.232719 1.074800 5.181024 -17.008054 -25.350582 -34.918964 0.000000 0.000000 0.000000 -12.493245 12.861494 -6.200985 9.397008 -2.227033 14.276063 10.429640 26.752833 -37.800486 
